# xmcd
#
# Track frame offsets:
#	150
#	14700
#	34257
#	52043
#	68973
#	84498
#	97976
#	118991
#	136477
#	154788
#	170531
#
# Disc length: 2556 seconds
#
# Revision: 0
# Processed by: cddbd v1.5.2PL0 Copyright (c) Steve Scherf et al.
# Submitted via: dBpowerAMP V4.0
#
DISCID=9a09fa0b
DTITLE=Willy Mason - If The Ocean Gets Rough
DYEAR=2007
DGENRE=Alternative
TTITLE0=Gotta Keep Walking
TTITLE1=The World That I Wanted
TTITLE2=We Can Be Strong
TTITLE3=Save Myself
TTITLE4=I Can't Sleep
TTITLE5=Riptide
TTITLE6=When The River Moves On
TTITLE7=If The Ocean Gets Rough
TTITLE8=Simple Town
TTITLE9=The End Of The Race
TTITLE10=When The Leaves Have Fallen
EXTD=
EXTT0=
EXTT1=
EXTT2=
EXTT3=
EXTT4=
EXTT5=
EXTT6=
EXTT7=
EXTT8=
EXTT9=
EXTT10=
PLAYORDER=
